<svg width="26" height="20" viewBox="0 0 26 20" fill="none" xmlns="http://www.w3.org/2000/svg">
<path d="M19.3578 15.8461C19.3287 15.817 19.3057 15.7826 19.2899 15.7446C19.2742 15.7067 19.2661 15.666 19.2661 15.625C19.2661 15.5839 19.2742 15.5432 19.2899 15.5053C19.3057 15.4674 19.3287 15.4329 19.3578 15.4039L24.4492 10.3125L0.795898 10.3367C0.713018 10.3367 0.633533 10.3038 0.574928 10.2452C0.516323 10.1866 0.483398 10.1071 0.483398 10.0242C0.483398 9.94135 0.516323 9.86187 0.574928 9.80326C0.633533 9.74466 0.713018 9.71173 0.795898 9.71173L24.4492 9.68746L19.3578 4.59605C19.3287 4.56702 19.3057 4.53255 19.29 4.49461C19.2743 4.45668 19.2662 4.41602 19.2662 4.37496C19.2662 4.3339 19.2743 4.29324 19.29 4.2553C19.3057 4.21737 19.3287 4.1829 19.3578 4.15387C19.3868 4.12483 19.4213 4.1018 19.4592 4.08609C19.4971 4.07037 19.5378 4.06229 19.5789 4.06229C19.6199 4.06229 19.6606 4.07037 19.6985 4.08609C19.7364 4.1018 19.7709 4.12483 19.7999 4.15387L25.4249 9.77887C25.454 9.80789 25.4771 9.84235 25.4928 9.88029C25.5085 9.91823 25.5166 9.95889 25.5166 9.99996C25.5166 10.041 25.5085 10.0817 25.4928 10.1196C25.4771 10.1576 25.454 10.192 25.4249 10.2211L19.7999 15.8461C19.7709 15.8751 19.7365 15.8982 19.6985 15.9139C19.6606 15.9296 19.6199 15.9377 19.5789 15.9377C19.5378 15.9377 19.4971 15.9296 19.4592 15.9139C19.4212 15.8982 19.3868 15.8751 19.3578 15.8461Z" fill="#F7F6F3"/>
</svg>
