<svg width="26" height="20" viewBox="0 0 26 20" fill="none" xmlns="http://www.w3.org/2000/svg">
<path d="M6.64224 4.15395C6.67129 4.18297 6.69434 4.21743 6.71007 4.25537C6.7258 4.29331 6.73389 4.33397 6.73389 4.37504C6.73389 4.41611 6.7258 4.45677 6.71007 4.49471C6.69434 4.53265 6.67129 4.56711 6.64224 4.59613L1.55083 9.68754L25.2041 9.66326C25.287 9.66326 25.3665 9.69619 25.4251 9.75479C25.4837 9.8134 25.5166 9.89288 25.5166 9.97576C25.5166 10.0586 25.4837 10.1381 25.4251 10.1967C25.3665 10.2553 25.287 10.2883 25.2041 10.2883L1.55083 10.3125L6.64224 15.4039C6.67127 15.433 6.6943 15.4674 6.71002 15.5054C6.72573 15.5433 6.73382 15.584 6.73382 15.625C6.73382 15.6661 6.72573 15.7068 6.71002 15.7447C6.6943 15.7826 6.67127 15.8171 6.64224 15.8461C6.6132 15.8752 6.57873 15.8982 6.5408 15.9139C6.50286 15.9296 6.4622 15.9377 6.42114 15.9377C6.38008 15.9377 6.33942 15.9296 6.30149 15.9139C6.26355 15.8982 6.22908 15.8752 6.20005 15.8461L0.57505 10.2211C0.545995 10.1921 0.522946 10.1576 0.50722 10.1197C0.491493 10.0818 0.483399 10.0411 0.483399 10C0.483399 9.95897 0.491493 9.91831 0.50722 9.88037C0.522946 9.84243 0.545995 9.80797 0.57505 9.77895L6.20005 4.15395C6.22907 4.12489 6.26354 4.10184 6.30148 4.08611C6.33941 4.07039 6.38008 4.06229 6.42114 4.06229C6.46221 4.06229 6.50288 4.07039 6.54081 4.08611C6.57875 4.10184 6.61322 4.12489 6.64224 4.15395Z" fill="#F7F6F3"/>
</svg>
