<svg width="16" height="16" viewBox="0 0 16 16" fill="none" xmlns="http://www.w3.org/2000/svg">
<g clip-path="url(#clip0_106_2572)">
<path d="M3.51065 6.51C3.82257 5.5663 4.42455 4.74521 5.23072 4.16386C6.03689 3.58252 7.00607 3.27062 7.99998 3.27267C9.12665 3.27267 10.1453 3.67267 10.9453 4.32733L13.2733 2C11.8546 0.763333 10.0366 0 7.99998 0C4.84665 0 2.13198 1.79867 0.826646 4.43333L3.51065 6.51ZM10.6933 12.0087C9.96665 12.4773 9.04398 12.7273 7.99998 12.7273C7.01003 12.7294 6.04451 12.42 5.24014 11.8429C4.43576 11.2659 3.83327 10.4504 3.51798 9.512L0.824646 11.5567C1.48548 12.8942 2.50816 14.0196 3.77653 14.805C5.0449 15.5905 6.50812 16.0045 7.99998 16C9.95531 16 11.8233 15.3047 13.2226 14L10.6933 12.0087Z" fill="#232323"/>
<path d="M13.2227 14C14.686 12.6347 15.636 10.6027 15.636 7.99999C15.636 7.52665 15.5633 7.01799 15.4547 6.54532H8.00002V9.63665H12.2907C12.0794 10.676 11.5107 11.4807 10.694 12.0087L13.2227 14ZM3.51802 9.51199C3.35492 9.02459 3.27206 8.51394 3.27268 7.99999C3.27268 7.47865 3.35602 6.97799 3.51068 6.50999L0.826683 4.43332C0.277602 5.54178 -0.00544766 6.763 1.66012e-05 7.99999C1.66012e-05 9.27999 0.296683 10.4867 0.824683 11.5567L3.51802 9.51199Z" fill="#232323"/>
</g>
<defs>
<clipPath id="clip0_106_2572">
<rect width="16" height="16" fill="white"/>
</clipPath>
</defs>
</svg>
