<svg width="20" height="20" viewBox="0 0 20 20" fill="none" xmlns="http://www.w3.org/2000/svg">
<path d="M16.875 3.4375H3.125C2.87636 3.4375 2.6379 3.53627 2.46209 3.71209C2.28627 3.8879 2.1875 4.12636 2.1875 4.375V15.625C2.1875 15.8736 2.28627 16.1121 2.46209 16.2879C2.6379 16.4637 2.87636 16.5625 3.125 16.5625H16.875C17.1236 16.5625 17.3621 16.4637 17.5379 16.2879C17.7137 16.1121 17.8125 15.8736 17.8125 15.625V4.375C17.8125 4.12636 17.7137 3.8879 17.5379 3.71209C17.3621 3.53627 17.1236 3.4375 16.875 3.4375ZM3.125 4.0625H16.875C16.9579 4.0625 17.0374 4.09542 17.096 4.15403C17.1546 4.21263 17.1875 4.29212 17.1875 4.375V13.1562L14.618 10.5867C14.5309 10.4993 14.4274 10.43 14.3134 10.3827C14.1995 10.3353 14.0773 10.311 13.9539 10.311C13.8305 10.311 13.7083 10.3353 13.5944 10.3827C13.4804 10.43 13.3769 10.4993 13.2898 10.5867L11.5063 12.3703L7.84844 8.71172C7.76134 8.62432 7.65785 8.55497 7.54389 8.50765C7.42994 8.46034 7.30776 8.43598 7.18437 8.43598C7.06099 8.43598 6.93881 8.46034 6.82486 8.50765C6.7109 8.55497 6.60741 8.62432 6.52031 8.71172L2.8125 12.4219V4.375C2.8125 4.29212 2.84542 4.21263 2.90403 4.15403C2.96263 4.09542 3.04212 4.0625 3.125 4.0625ZM2.8125 15.625V13.3078L6.96641 9.15391C6.99543 9.12485 7.02989 9.1018 7.06783 9.08607C7.10577 9.07035 7.14643 9.06225 7.1875 9.06225C7.22857 9.06225 7.26923 9.07035 7.30717 9.08607C7.34511 9.1018 7.37957 9.12485 7.40859 9.15391L14.1922 15.9375H3.125C3.04212 15.9375 2.96263 15.9046 2.90403 15.846C2.84542 15.7874 2.8125 15.7079 2.8125 15.625ZM16.875 15.9375H15.0781L11.9531 12.8125L13.7367 11.0289C13.7657 10.9999 13.8002 10.9768 13.8381 10.9611C13.8761 10.9453 13.9167 10.9373 13.9578 10.9373C13.9989 10.9373 14.0395 10.9453 14.0775 10.9611C14.1154 10.9768 14.1499 10.9999 14.1789 11.0289L17.1875 14.0398V15.625C17.1875 15.7079 17.1546 15.7874 17.096 15.846C17.0374 15.9046 16.9579 15.9375 16.875 15.9375ZM11.5625 7.8125C11.5625 7.68889 11.5992 7.56805 11.6678 7.46527C11.7365 7.36249 11.8341 7.28238 11.9483 7.23508C12.0625 7.18777 12.1882 7.17539 12.3094 7.19951C12.4307 7.22362 12.542 7.28315 12.6294 7.37056C12.7169 7.45797 12.7764 7.56933 12.8005 7.69057C12.8246 7.81181 12.8122 7.93747 12.7649 8.05168C12.7176 8.16588 12.6375 8.26349 12.5347 8.33217C12.432 8.40084 12.3111 8.4375 12.1875 8.4375C12.0217 8.4375 11.8628 8.37165 11.7456 8.25444C11.6283 8.13723 11.5625 7.97826 11.5625 7.8125Z" fill="#3D3D3D"/>
</svg>
