<svg width="24" height="24" viewBox="0 0 24 24" fill="none" xmlns="http://www.w3.org/2000/svg">
<path d="M13.5556 2H11.4444V4.11111H13.5556V2ZM17.7778 4.11111H19.8889V6.22222H17.7778V4.11111ZM11.4444 10.4444H13.5556V12.5556H11.4444V10.4444ZM3 10.4444H5.11111V12.5556H3V10.4444ZM22 10.4444H19.8889V12.5556H22V10.4444ZM5.11111 4.11111H7.22222V6.22222H5.11111V4.11111ZM19.8889 18.8889H17.7778V16.7778H19.8889V18.8889ZM11.4444 21H13.5556V18.8889H11.4444V21ZM7.22222 18.8889H5.11111V16.7778H7.22222V18.8889ZM9.33333 6.22222H15.6667V8.33333H9.33333V6.22222ZM9.33333 14.6667H7.22222V8.33333H9.33333V14.6667ZM9.33333 14.6667V16.7778H15.6667V14.6667H17.7778V8.33333H15.6667V14.6667H9.33333Z" fill="black"/>
</svg>
