<svg width="1024" height="1024" viewBox="0 0 1024 1024" fill="none" xmlns="http://www.w3.org/2000/svg">
  <rect width="1024" height="1024" fill="#000000"/>
  <path d="M512 205C512 205 666 359 820 359C820 359 666 359 666 512C666 359 512 359 512 512C512 359 359 359 359 512C359 359 205 359 205 359C359 359 512 205 512 205Z" stroke="#E0DFD5" stroke-width="20"/>
  <path d="M512 820C512 820 666 666 820 666C820 666 666 666 666 512C666 666 512 666 512 512C512 666 359 666 359 512C359 666 205 666 205 666C359 666 512 820 512 820Z" stroke="#E0DFD5" stroke-width="20"/>
</svg>