<svg width="1024" height="1024" viewBox="0 0 1024 1024" fill="none" xmlns="http://www.w3.org/2000/svg">
  <rect width="1024" height="1024" fill="#000000"/>
  <path d="M512 102C512 102 717 307 922 307C922 307 717 307 717 512C717 307 512 307 512 512C512 307 307 307 307 512C307 307 102 307 102 307C307 307 512 102 512 102Z" stroke="#E0DFD5" stroke-width="24"/>
  <path d="M512 922C512 922 717 717 922 717C922 717 717 717 717 512C717 717 512 717 512 512C512 717 307 717 307 512C307 717 102 717 102 717C307 717 512 922 512 922Z" stroke="#E0DFD5" stroke-width="24"/>
</svg>