<svg width="1242" height="2436" viewBox="0 0 1242 2436" fill="none" xmlns="http://www.w3.org/2000/svg">
  <rect width="1242" height="2436" fill="#000000"/>
  <g transform="translate(371, 1068)">
    <path d="M250 50C250 50 352.5 152.5 455 152.5C455 152.5 352.5 152.5 352.5 255C352.5 152.5 250 152.5 250 255C250 152.5 147.5 152.5 147.5 255C147.5 152.5 45 152.5 45 152.5C147.5 152.5 250 50 250 50Z" stroke="#E0DFD5" stroke-width="12"/>
    <path d="M250 460C250 460 352.5 357.5 455 357.5C455 357.5 352.5 357.5 352.5 255C352.5 357.5 250 357.5 250 255C250 357.5 147.5 357.5 147.5 255C147.5 357.5 45 357.5 45 357.5C147.5 357.5 250 460 250 460Z" stroke="#E0DFD5" stroke-width="12"/>
  </g>
  <text x="621" y="1600" text-anchor="middle" font-family="ClashDisplay-Medium" font-size="64" fill="#E0DFD5">Angel Number Catcher</text>
</svg>